<svg width="109" height="36" viewBox="0 0 109 36" fill="none" xmlns="http://www.w3.org/2000/svg">
<g clip-path="url(#clip0_310_779)">
<path d="M39.7146 13.7483C39.1611 14.3543 38.223 14.392 37.6194 13.8362L34.4047 10.8656C33.8012 10.3098 33.7637 9.36777 34.3172 8.76172C34.8707 8.15567 35.8088 8.11799 36.4124 8.6738L39.6271 11.6444C40.2306 12.2002 40.2681 13.1422 39.7146 13.7451" fill="#FCC001"/>
<path d="M44.9152 9.68178C44.1959 10.0743 43.2953 9.80425 42.9075 9.08202L40.828 5.22278C40.4371 4.50055 40.706 3.59619 41.4253 3.20681C42.1445 2.8143 43.0451 3.08435 43.4329 3.80658L45.5125 7.66581C45.9034 8.38805 45.6344 9.29241 44.9152 9.68178Z" fill="#F08D01"/>
<path d="M51.2633 7.78514C50.4565 7.92016 49.6935 7.37378 49.559 6.56362L48.8397 2.23651C48.7053 1.42635 49.2494 0.660158 50.0562 0.525132C50.863 0.390106 51.626 0.93649 51.7605 1.74665L52.4798 6.07376C52.6142 6.88391 52.0701 7.65011 51.2633 7.78514Z" fill="#FCC001"/>
<path d="M57.8556 7.78513C57.0488 7.65011 56.5016 6.88391 56.636 6.07376L57.3553 1.74664C57.4898 0.936487 58.2528 0.386963 59.0596 0.521989C59.8664 0.657015 60.4105 1.42321 60.2792 2.23336L59.5599 6.56048C59.4255 7.37063 58.6624 7.92016 57.8556 7.78199" fill="#F08D01"/>
<path d="M63.9814 9.6755C63.2622 9.28612 62.9932 8.38176 63.3841 7.65953L65.4637 3.80029C65.8515 3.07806 66.7521 2.80801 67.4713 3.20053C68.1906 3.58991 68.4595 4.49427 68.0686 5.2165L65.9891 9.07573C65.6013 9.79796 64.7007 10.068 63.9814 9.6755Z" fill="#FCC001"/>
<path d="M69.1852 13.742C68.6317 13.1391 68.6692 12.197 69.2696 11.6412L72.4843 8.66751C73.0847 8.1117 74.0229 8.14938 74.5764 8.75229C75.1299 9.3552 75.0924 10.2972 74.4888 10.8562L71.2741 13.8299C70.6706 14.3857 69.7355 14.348 69.182 13.742" fill="#F08D01"/>
<path d="M4.34674 13.8299V20.3174H11.9176V24.6351H4.34674V35.5H0V9.52789H14.9853V13.8299H4.34674Z" fill="#0663AA"/>
<path d="M34.3704 15.7736V27.0091C34.3704 29.2574 33.4917 31.2577 31.7593 32.9471C30.0268 34.6365 28.0098 35.4937 25.7614 35.4937C23.513 35.4937 21.4678 34.6365 19.7479 32.9439C18.0248 31.2545 17.1523 29.2543 17.1523 27.0059V15.7705H21.5147V27.119C21.5241 27.5586 21.6054 27.9919 21.7555 28.4064C21.8462 28.6608 22.1308 29.3265 22.7781 29.9639C23.6162 30.7929 24.62 31.2137 25.7614 31.2137C26.9028 31.2137 27.9066 30.7929 28.7447 29.9639C29.5828 29.1349 30.0081 28.1395 30.0081 27.0091V15.7736H34.3704Z" fill="#0663AA"/>
<path d="M52.9301 9.16678V17.6263C51.1883 16.1976 49.14 15.4722 46.8384 15.4722C44.1115 15.4722 41.7662 16.4739 39.8649 18.4522C37.9698 20.4148 37.0098 22.7856 37.0098 25.5018C37.0098 28.218 38.0105 30.6265 39.9806 32.5765C41.9507 34.514 44.3617 35.4969 47.1449 35.4969C49.928 35.4969 52.3234 34.514 54.2967 32.5828L54.306 32.5734C56.2887 30.6108 57.2925 28.2306 57.2925 25.4986V9.16678H52.9301ZM43.0639 21.4824C44.1991 20.3582 45.5688 19.7899 47.1417 19.7899C48.7147 19.7899 50.0844 20.3582 51.2195 21.4824C52.3547 22.6066 52.9301 23.9568 52.9301 25.5018C52.9301 26.2805 52.7862 27.0091 52.5017 27.6842C52.2171 28.3593 51.7887 28.9779 51.2195 29.54C50.0969 30.6516 48.7241 31.2168 47.1417 31.2168C45.5594 31.2168 44.1866 30.6516 43.0639 29.54C41.9413 28.4284 41.3721 27.0687 41.3721 25.5018C41.3721 23.9349 41.9413 22.594 43.0639 21.4824Z" fill="#0663AA"/>
<path d="M109 23.6931V35.5H104.638V23.6931C104.638 22.751 104.309 21.9032 103.665 21.1653C103.043 20.4525 102.249 20.0945 101.307 20.0945C100.278 20.0945 99.4529 20.4273 98.8556 21.0836C98.274 21.7462 97.9769 22.6254 97.9769 23.6962V35.5032H93.6145V23.6962C93.6145 22.616 93.3112 21.7399 92.717 21.0836C92.1385 20.4273 91.3254 20.0976 90.2997 20.0976C89.3459 20.0976 88.5454 20.4587 87.9231 21.1684C87.2883 21.8938 86.9693 22.7448 86.9693 23.6962V35.5032H82.6069V23.6962C82.6069 21.5704 83.3512 19.702 84.8147 18.1413C86.2845 16.5744 88.1326 15.7768 90.2997 15.7768C92.4668 15.7768 94.3431 16.5336 95.8035 18.0283C97.242 16.5336 99.0933 15.7768 101.31 15.7768C103.528 15.7768 105.307 16.5712 106.78 18.1413C108.256 19.7145 109.006 21.5829 109.006 23.6962" fill="#0663AA"/>
<path d="M75.3579 25.5772L75.3642 25.7844C75.4111 27.3451 74.9326 28.7267 73.9507 29.8823C72.9844 31.0222 71.7085 31.6314 70.1637 31.6847C68.9754 31.7256 67.8684 31.4053 66.8708 30.7239L78.4976 22.5312L78.4194 22.3711C77.5938 20.6471 76.3711 19.2718 74.7919 18.2889C73.2096 17.3029 71.4615 16.835 69.5914 16.9041C67.0303 16.9952 64.8601 17.9969 63.1308 19.8841C61.4046 21.7713 60.5727 24.0228 60.6634 26.5789C60.7541 29.1601 61.7485 31.3362 63.6155 33.0507C65.4792 34.7621 67.7308 35.5848 70.2982 35.4937C70.3357 35.4937 70.3732 35.4937 70.4108 35.4906C71.6866 35.4309 72.8624 35.1483 73.9257 34.6459C74.9889 34.1435 75.9427 33.4181 76.7745 32.4792C78.4757 30.5637 79.2981 28.2683 79.2168 25.6557L79.2106 25.4453L75.3579 25.5834V25.5772ZM65.9358 22.4998C66.9334 21.4039 68.1874 20.8136 69.6634 20.7445H69.729C70.908 20.7005 72.015 21.024 73.0219 21.7022L64.6787 27.5712C64.563 27.1692 64.5004 26.7893 64.4879 26.4438C64.4348 24.9429 64.9226 23.6146 65.9358 22.4998Z" fill="#0663AA"/>
</g>
<defs>
<clipPath id="clip0_310_779">
<rect width="109" height="35" fill="white" transform="translate(0 0.5)"/>
</clipPath>
</defs>
</svg>
